#!OML:ASF E:\Steps\Project 1\Capture day 1\Session 2\Subject.ASF
:FULLY-SPECIFIED
:DEGREES
232
root -1.16408 17.9781 20.6462 -152.656 -9.63091 177.758
lowerback -24.8793 0.0415219 -7.90972
upperback -1.64705 1.92416 -1.18004
thorax 11.8476 0.294877 3.81868
lowerneck -6.66232 4.28241 6.18725
upperneck 0.689759 5.29741 -4.28006
head 1.68215 2.56429 -2.25304
rclavicle -2.88238e-015 -8.34896e-015
rhumerus -41.8922 -11.1842 -83.7866
rradius 37.9711
rwrist -16.9899
rhand 3.16639 -65.0942
rfingers 7.12502
rthumb 28.6195 812.923
lclavicle -2.88238e-015 -8.34896e-015
lhumerus -28.6206 -1.86053 83.9264
lradius 21.8878
lwrist -0.770397
lhand -21.9799 -11.9704
lfingers 7.12502
lthumb 4.42815 17.9633
rfemur -23.2555 3.82316 20.1679
rtibia 6.11173
rfoot -18.4265 -6.64802
rtoes -13.2266
lfemur -25.119 -6.92225 -22.8621
ltibia 6.97171
lfoot -4.79737 -9.57558
ltoes -26.3467
233
root -1.1628 17.9761 20.6511 -152.548 -9.5074 177.818
lowerback -24.9434 0.0227791 -7.8922
upperback -1.67365 1.89043 -1.14499
thorax 11.8546 0.27755 3.83811
lowerneck -6.60766 4.24058 6.31099
upperneck 0.853676 5.24538 -4.3662
head 1.73098 2.54081 -2.30682
rclavicle -1.98785e-015 -2.38542e-015
rhumerus -41.84 -11.238 -83.7703
rradius 37.989
rwrist -16.9436
rhand 2.99266 -65.2425
rfingers 7.12502
rthumb 28.4535 813.099
lclavicle -1.98785e-015 -2.38542e-015
lhumerus -28.6074 -1.61337 83.7677
lradius 21.7981
lwrist -1.00893
lhand -22.0959 -11.4822
lfingers 7.12502
lthumb 4.31614 18.4538
rfemur -23.4921 3.79102 20.2322
rtibia 6.25617
rfoot -18.4337 -6.49422
rtoes -13.3758
lfemur -25.2969 -6.80826 -22.8195
ltibia 7.02995
lfoot -4.85921 -9.54652
ltoes -26.7465
234
root -1.16195 17.9745 20.6546 -152.48 -9.33375 177.846
lowerback -24.9543 0.0368838 -7.86495
upperback -1.70906 1.89509 -1.14952
thorax 11.8196 0.281327 3.81851
lowerneck -6.47591 4.17369 6.39032
upperneck 1.01346 5.16866 -4.44049
head 1.76104 2.50629 -2.35098
rclavicle -2.10712e-014 7.95139e-015
rhumerus -41.8085 -11.1522 -83.8042
rradius 37.9207
rwrist -17.1343
rhand 3.01126 -65.0219
rfingers 7.12502
rthumb 28.4713 812.875
lclavicle -2.10712e-014 7.95139e-015
lhumerus -28.6307 -1.25997 83.524
lradius 21.6841
lwrist -1.33815
lhand -22.0956 -11.4354
lfingers 7.12502
lthumb 4.3165 18.5006
rfemur -23.683 3.80111 20.2397
rtibia 6.41427
rfoot -18.5157 -6.35449
rtoes -13.4547
lfemur -25.3894 -6.73407 -22.8151
ltibia 7.05224
lfoot -4.96039 -9.39906
ltoes -27.0413
235
root -1.16244 17.9744 20.6548 -152.477 -9.21799 177.859
lowerback -24.9519 0.0631326 -7.82235
upperback -1.7271 1.91622 -1.17653
thorax 11.7973 0.29416 3.77015
lowerneck -6.33683 4.0978 6.45812
upperneck 1.17139 5.08003 -4.48217
head 1.78666 2.46644 -2.38284
rclavicle 1.22253e-014 8.98507e-014
rhumerus -41.878 -11.2474 -83.7594
rradius 37.8589
rwrist -17.3432
rhand 3.05938 -64.6725
rfingers 7.12502
rthumb 28.5173 812.518
lclavicle 1.22253e-014 8.98507e-014
lhumerus -28.6397 -0.942485 83.2633
lradius 21.5462
lwrist -1.53093
lhand -21.8995 -11.8814
lfingers 7.12502
lthumb 4.50585 18.0506
rfemur -23.7396 3.76982 20.2533
rtibia 6.47869
rfoot -18.5212 -6.25452
rtoes -13.53
lfemur -25.3734 -6.68505 -22.8301
ltibia 7.03138
lfoot -5.01654 -9.31421
ltoes -27.4411
236
root -1.163 17.974 20.6541 -152.459 -9.15269 177.826
lowerback -24.9812 0.0717332 -7.85106
upperback -1.73586 1.93807 -1.2078
thorax 11.8005 0.302125 3.75865
lowerneck -6.27682 4.03164 6.54387
upperneck 1.3457 4.99691 -4.50504
head 1.83208 2.4287 -2.41035
rclavicle 8.44835e-015 -7.95139e-015
rhumerus -42.011 -11.4341 -83.6911
rradius 37.9017
rwrist -17.4107
rhand 3.00209 -64.5799
rfingers 7.12502
rthumb 28.4626 812.435
lclavicle 8.44835e-015 -7.95139e-015
lhumerus -28.6257 -0.818485 83.0883
lradius 21.4439
lwrist -1.58029
lhand -21.7198 -12.1491
lfingers 7.12502
lthumb 4.67934 17.7792
rfemur -23.7585 3.84113 20.1845
rtibia 6.45382
rfoot -18.468 -6.27811
rtoes -13.4972
lfemur -25.3729 -6.66507 -22.8835
ltibia 7.01825
lfoot -5.04022 -9.35296
ltoes -27.7995
237
root -1.16174 17.9736 20.6536 -152.457 -9.07692 177.81
lowerback -24.9967 0.0836546 -7.88633
upperback -1.73853 1.96564 -1.23129
thorax 11.802 0.312685 3.76151
lowerneck -6.21197 3.96118 6.6219
upperneck 1.51996 4.90887 -4.52967
head 1.87606 2.38846 -2.43741
rclavicle 1.59028e-014 1.82882e-014
rhumerus -42.0703 -11.5848 -83.6725
rradius 37.8821
rwrist -17.4305
rhand 2.83435 -64.3388
rfingers 7.12502
rthumb 28.3023 812.22
lclavicle 1.59028e-014 1.82882e-014
lhumerus -28.6264 -0.875465 82.9961
lradius 21.4203
lwrist -1.56308
lhand -21.7019 -12.0823
lfingers 7.12502
lthumb 4.69663 17.8456
rfemur -23.7666 3.99779 20.1138
rtibia 6.44299
rfoot -18.4749 -6.33116
rtoes -13.3874
lfemur -25.3619 -6.61484 -22.9192
ltibia 7.0066
lfoot -5.03992 -9.38053
ltoes -28.0724
238
root -1.16004 17.9741 20.6536 -152.466 -9.02968 177.868
lowerback -25.008 0.0894726 -7.86598
upperback -1.72953 1.96707 -1.19468
thorax 11.8178 0.313384 3.79254
lowerneck -6.13305 3.88758 6.67071
upperneck 1.69806 4.82038 -4.56739
head 1.91816 2.34766 -2.46377
rclavicle 4.6615e-014 1.70955e-014
rhumerus -42.0569 -11.6185 -83.6498
rradius 37.8227
rwrist -17.5611
rhand 2.59098 -63.8757
rfingers 7.12502
rthumb 28.0696 811.796
lclavicle 4.6615e-014 1.70955e-014
lhumerus -28.6181 -0.847562 82.9429
lradius 21.4095
lwrist -1.67414
lhand -21.7365 -11.9675
lfingers 7.12502
lthumb 4.66316 17.9612
rfemur -23.7861 3.95039 20.1863
rtibia 6.44771
rfoot -18.4606 -6.17507
rtoes -13.4244
lfemur -25.3608 -6.54674 -22.862
ltibia 7.00012
lfoot -4.98866 -9.30136
ltoes -28.1375
239
root -1.15923 17.9735 20.6533 -152.439 -9.0062 177.906
lowerback -25.0684 0.0715403 -7.86521
upperback -1.71462 1.94576 -1.14272
thorax 11.8685 0.300168 3.8457
lowerneck -6.09351 3.826 6.71466
upperneck 1.88725 4.74552 -4.60217
head 1.97161 2.31311 -2.48723
rclavicle -4.86029e-014 1.27222e-014
rhumerus -42.0507 -11.5903 -83.6187
rradius 37.8629
rwrist -17.7152
rhand 2.50143 -63.6889
rfingers 7.12502
rthumb 27.984 811.623
lclavicle -4.86029e-014 1.27222e-014
lhumerus -28.5825 -0.749672 82.8833
lradius 21.3594
lwrist -1.80274
lhand -21.8111 -12.027
lfingers 7.12502
lthumb 4.59114 17.9033
rfemur -23.7945 3.85688 20.2489
rtibia 6.38399
rfoot -18.4069 -6.06836
rtoes -13.6193
lfemur -25.3812 -6.55206 -22.8058
ltibia 6.96696
lfoot -4.95993 -9.19936
ltoes -28.1363
240
root -1.15931 17.9734 20.6528 -152.429 -8.99303 177.888
lowerback -25.0865 0.0524624 -7.87382
upperback -1.71672 1.92432 -1.1513
thorax 11.8785 0.289024 3.83387
lowerneck -6.02501 3.77022 6.78374
upperneck 2.06826 4.6778 -4.63071
head 2.01817 2.28274 -2.51338
rclavicle 3.11098e-014 -3.65764e-014
rhumerus -42.0962 -11.6689 -83.6198
rradius 37.9455
rwrist -17.7161
rhand 2.51845 -63.948
rfingers 7.12502
rthumb 28.0003 811.879
lclavicle 3.11098e-014 -3.65764e-014
lhumerus -28.6143 -0.875607 82.8233
lradius 21.3703
lwrist -1.71329
lhand -22.0969 -11.9324
lfingers 7.12502
lthumb 4.31521 18.0036
rfemur -23.7673 3.86299 20.2231
rtibia 6.32537
rfoot -18.3829 -6.11742
rtoes -13.4411
lfemur -25.3729 -6.59059 -22.8178
ltibia 6.9371
lfoot -4.9913 -9.13625
ltoes -28.4932
241
root -1.16053 17.975 20.6529 -152.423 -8.95614 177.852
lowerback -25.0882 0.038838 -7.87989
upperback -1.72187 1.90941 -1.18255
thorax 11.8761 0.28198 3.79649
lowerneck -5.92828 3.72313 6.85032
upperneck 2.24319 4.62374 -4.66425
head 2.05852 2.2593 -2.54056
rclavicle -1.23246e-014 1.03368e-014
rhumerus -42.1302 -11.7053 -83.6595
rradius 37.9905
rwrist -17.6493
rhand 2.58615 -64.3641
rfingers 7.12502
rthumb 28.065 812.285
lclavicle -1.23246e-014 1.03368e-014
lhumerus -28.6619 -1.06336 82.7658
lradius 21.4357
lwrist -1.60085
lhand -22.2762 -11.6524
lfingers 7.12502
lthumb 4.14205 18.2871
rfemur -23.7671 3.84823 20.1685
rtibia 6.32156
rfoot -18.3917 -6.04891
rtoes -12.92
lfemur -25.3567 -6.62781 -22.8679
ltibia 6.91266
lfoot -4.9726 -9.07907
ltoes -28.6348
242
root -1.16038 17.9756 20.6535 -152.407 -8.9108 177.847
lowerback -25.1143 0.0164857 -7.86186
upperback -1.71668 1.87755 -1.18473
thorax 11.9008 0.266837 3.77347
lowerneck -5.82776 3.68086 6.87211
upperneck 2.40908 4.5792 -4.69482
head 2.09413 2.24003 -2.55811
rclavicle 3.63776e-014 -5.56597e-015
rhumerus -42.1017 -11.5944 -83.7136
rradius 37.9613
rwrist -17.6515
rhand 2.51641 -64.3736
rfingers 7.12502
rthumb 27.9984 812.305
lclavicle 3.63776e-014 -5.56597e-015
lhumerus -28.6333 -0.990917 82.6519
lradius 21.4738
lwrist -1.56697
lhand -22.1423 -11.4712
lfingers 7.12502
lthumb 4.27139 18.4657
rfemur -23.7776 3.86515 20.1553
rtibia 6.30166
rfoot -18.3986 -5.99912
rtoes -12.8409
lfemur -25.352 -6.65363 -22.8708
ltibia 6.87085
lfoot -4.87399 -9.04878
ltoes -28.0354
